<svg width="24" height="24" viewBox="0 0 24 24" fill="none" xmlns="http://www.w3.org/2000/svg">
<path fill-rule="evenodd" clip-rule="evenodd" d="M11.5385 10.75C11.103 10.75 10.75 11.103 10.75 11.5385V18.4615C10.75 18.897 11.103 19.25 11.5385 19.25H18.4615C18.897 19.25 19.25 18.897 19.25 18.4615V11.5385C19.25 11.103 18.897 10.75 18.4615 10.75H11.5385ZM9.25 11.5385C9.25 10.2746 10.2746 9.25 11.5385 9.25H18.4615C19.7254 9.25 20.75 10.2746 20.75 11.5385V18.4615C20.75 19.7254 19.7254 20.75 18.4615 20.75H11.5385C10.2746 20.75 9.25 19.7254 9.25 18.4615V11.5385Z" fill="#6A7996"/>
<path fill-rule="evenodd" clip-rule="evenodd" d="M5.53846 4.75C5.32935 4.75 5.1288 4.83307 4.98093 4.98093C4.83307 5.1288 4.75 5.32935 4.75 5.53846V12.4615C4.75 12.6707 4.83307 12.8712 4.98093 13.0191C5.1288 13.1669 5.32935 13.25 5.53846 13.25H6.30769C6.72191 13.25 7.05769 13.5858 7.05769 14C7.05769 14.4142 6.72191 14.75 6.30769 14.75H5.53846C4.93152 14.75 4.34944 14.5089 3.92027 14.0797C3.49111 13.6506 3.25 13.0685 3.25 12.4615V5.53846C3.25 4.93152 3.4911 4.34944 3.92027 3.92027C4.34944 3.4911 4.93152 3.25 5.53846 3.25H12.4615C13.0685 3.25 13.6506 3.49111 14.0797 3.92027C14.5089 4.34944 14.75 4.93152 14.75 5.53846V6.30769C14.75 6.72191 14.4142 7.05769 14 7.05769C13.5858 7.05769 13.25 6.72191 13.25 6.30769V5.53846C13.25 5.32935 13.1669 5.1288 13.0191 4.98093C12.8712 4.83307 12.6707 4.75 12.4615 4.75H5.53846Z" fill="#6A7996"/>
</svg>
