<svg width="20" height="20" viewBox="0 0 20 20" fill="none" xmlns="http://www.w3.org/2000/svg">
<path fill-rule="evenodd" clip-rule="evenodd" d="M10 2.75C8.07718 2.75 6.23311 3.51384 4.87348 4.87348C3.51384 6.23311 2.75 8.07718 2.75 10C2.75 10.9521 2.93753 11.8948 3.30187 12.7745C3.66622 13.6541 4.20025 14.4533 4.87348 15.1265C5.5467 15.7997 6.34594 16.3338 7.22554 16.6981C8.10516 17.0625 9.04792 17.25 10 17.25C10.9521 17.25 11.8948 17.0625 12.7745 16.6981C13.6541 16.3338 14.4533 15.7997 15.1265 15.1265C15.7997 14.4533 16.3338 13.6541 16.6981 12.7745C17.0625 11.8948 17.25 10.9521 17.25 10C17.25 8.07718 16.4862 6.23311 15.1265 4.87348C13.7669 3.51384 11.9228 2.75 10 2.75ZM3.81282 3.81282C5.45376 2.17187 7.67936 1.25 10 1.25C12.3206 1.25 14.5462 2.17187 16.1872 3.81282C17.8281 5.45376 18.75 7.67936 18.75 10C18.75 11.1491 18.5237 12.2869 18.0839 13.3485C17.6442 14.4101 16.9997 15.3747 16.1872 16.1872C15.3747 16.9997 14.4101 17.6442 13.3485 18.0839C12.2869 18.5237 11.1491 18.75 10 18.75C8.85093 18.75 7.71312 18.5237 6.65152 18.0839C5.58992 17.6442 4.62533 16.9997 3.81282 16.1872C3.0003 15.3747 2.35578 14.4101 1.91605 13.3485C1.47633 12.2869 1.25 11.1491 1.25 10C1.25 7.67936 2.17187 5.45376 3.81282 3.81282ZM10 6.58333C10.4142 6.58333 10.75 6.91912 10.75 7.33333V10.6667C10.75 11.0809 10.4142 11.4167 10 11.4167C9.58579 11.4167 9.25 11.0809 9.25 10.6667V7.33333C9.25 6.91912 9.58579 6.58333 10 6.58333ZM9.25 13.3333C9.25 12.9191 9.58579 12.5833 10 12.5833H10.0071C10.4213 12.5833 10.7571 12.9191 10.7571 13.3333V13.3404C10.7571 13.7547 10.4213 14.0904 10.0071 14.0904H10C9.58579 14.0904 9.25 13.7547 9.25 13.3404V13.3333Z" fill="white"/>
</svg>
